<svg width="28" height="28" viewBox="0 0 28 28" fill="none" xmlns="http://www.w3.org/2000/svg">
<path d="M22.5 14C22.5 13.1716 21.8284 12.5 21 12.5C20.1716 12.5 19.5 13.1716 19.5 14C19.5 14.8284 20.1716 15.5 21 15.5C21.8284 15.5 22.5 14.8284 22.5 14ZM5.5 21C5.5 21.8284 6.17157 22.5 7 22.5C7.82843 22.5 8.5 21.8284 8.5 21C8.5 20.1716 7.82843 19.5 7 19.5C6.17157 19.5 5.5 20.1716 5.5 21ZM23.5 14C23.5 15.3807 22.3807 16.5 21 16.5C19.7943 16.5 18.7875 15.6466 18.5518 14.5107C17.0484 14.5794 16.2065 14.9959 15.6738 15.5059C15.0666 16.0873 14.7896 16.8463 14.4668 17.6807C14.1647 18.4615 13.8163 19.4521 13.0176 20.2168C12.2598 20.9422 11.1538 21.4184 9.45117 21.4893C9.22363 22.6356 8.21321 23.5 7 23.5C5.61929 23.5 4.5 22.3807 4.5 21C4.5 19.6193 5.61929 18.5 7 18.5C8.20531 18.5 9.2111 19.353 9.44727 20.4883C10.9512 20.4197 11.7933 20.0042 12.3262 19.4941C12.9334 18.9127 13.2104 18.1537 13.5332 17.3193C13.8353 16.5385 14.1837 15.5479 14.9824 14.7832C15.3075 14.472 15.6971 14.2074 16.1699 14C15.6971 13.7926 15.3075 13.528 14.9824 13.2168C14.1837 12.4521 13.8353 11.4615 13.5332 10.6807C13.2104 9.84625 12.9334 9.0873 12.3262 8.50586C11.7933 7.9958 10.9512 7.5793 9.44727 7.51074C9.21146 8.64645 8.20564 9.5 7 9.5C5.61929 9.5 4.5 8.38071 4.5 7C4.5 5.61929 5.61929 4.5 7 4.5C8.21287 4.5 9.22327 5.36386 9.45117 6.50977C11.1538 6.58066 12.2598 7.0578 13.0176 7.7832C13.8163 8.54786 14.1647 9.5385 14.4668 10.3193C14.7896 11.1537 15.0666 11.9127 15.6738 12.4941C16.2065 13.0041 17.0484 13.4196 18.5518 13.4883C18.7878 12.3529 19.7946 11.5 21 11.5C22.3807 11.5 23.5 12.6193 23.5 14ZM5.5 7C5.5 7.82843 6.17157 8.5 7 8.5C7.82843 8.5 8.5 7.82843 8.5 7C8.5 6.17157 7.82843 5.5 7 5.5C6.17157 5.5 5.5 6.17157 5.5 7Z" fill="#D3B1F6"/>
<path d="M23 25V26H5V25H23ZM25 23V5C25 3.89543 24.1046 3 23 3H5C3.89543 3 3 3.89543 3 5V23C3 24.1046 3.89543 25 5 25V26C3.34315 26 2 24.6569 2 23V5C2 3.34315 3.34315 2 5 2H23C24.6569 2 26 3.34315 26 5V23C26 24.6569 24.6569 26 23 26V25C24.1046 25 25 24.1046 25 23Z" fill="#D3B1F6"/>
</svg>
