<svg width="28" height="28" viewBox="0 0 28 28" fill="none" xmlns="http://www.w3.org/2000/svg">
<path d="M5.5 14C5.5 13.1716 6.1716 12.5 7 12.5C7.8284 12.5 8.5 13.1716 8.5 14C8.5 14.8284 7.8284 15.5 7 15.5C6.1716 15.5 5.5 14.8284 5.5 14ZM22.5 21C22.5 21.8284 21.8284 22.5 21 22.5C20.1716 22.5 19.5 21.8284 19.5 21C19.5 20.1716 20.1716 19.5 21 19.5C21.8284 19.5 22.5 20.1716 22.5 21ZM4.5 14C4.5 15.3807 5.6193 16.5 7 16.5C8.2057 16.5 9.2125 15.6466 9.4482 14.5107C10.9516 14.5794 11.7935 14.9959 12.3262 15.5059C12.9334 16.0873 13.2104 16.8463 13.5332 17.6807C13.8353 18.4615 14.1837 19.4521 14.9824 20.2168C15.7402 20.9422 16.8462 21.4184 18.5488 21.4893C18.7764 22.6356 19.7868 23.5 21 23.5C22.3807 23.5 23.5 22.3807 23.5 21C23.5 19.6193 22.3807 18.5 21 18.5C19.7947 18.5 18.7889 19.353 18.5527 20.4883C17.0488 20.4197 16.2067 20.0042 15.6738 19.4941C15.0666 18.9127 14.7896 18.1537 14.4668 17.3193C14.1647 16.5385 13.8163 15.5479 13.0176 14.7832C12.6925 14.472 12.3029 14.2074 11.8301 14C12.3029 13.7926 12.6925 13.528 13.0176 13.2168C13.8163 12.4521 14.1647 11.4615 14.4668 10.6807C14.7896 9.84625 15.0666 9.0873 15.6738 8.50586C16.2067 7.9958 17.0488 7.5793 18.5527 7.51074C18.7885 8.64645 19.7944 9.5 21 9.5C22.3807 9.5 23.5 8.38071 23.5 7C23.5 5.61929 22.3807 4.5 21 4.5C19.7871 4.5 18.7767 5.36386 18.5488 6.50977C16.8462 6.58066 15.7402 7.0578 14.9824 7.7832C14.1837 8.54786 13.8353 9.5385 13.5332 10.3193C13.2104 11.1537 12.9334 11.9127 12.3262 12.4941C11.7935 13.0041 10.9516 13.4196 9.4482 13.4883C9.2122 12.3529 8.2054 11.5 7 11.5C5.6193 11.5 4.5 12.6193 4.5 14ZM22.5 7C22.5 7.82843 21.8284 8.5 21 8.5C20.1716 8.5 19.5 7.82843 19.5 7C19.5 6.17157 20.1716 5.5 21 5.5C21.8284 5.5 22.5 6.17157 22.5 7Z" fill="#F5DC4B"/>
<path d="M10 2.5H18C19.8995 2.50001 21.2741 2.50073 22.3223 2.6416C23.356 2.78059 23.9972 3.04805 24.4746 3.52539C24.952 4.00279 25.2194 4.64393 25.3584 5.67773C25.4993 6.7259 25.5 8.10038 25.5 10V18C25.5 19.8996 25.4993 21.2741 25.3584 22.3223C25.2194 23.3561 24.952 23.9972 24.4746 24.4746C23.9972 24.952 23.356 25.2194 22.3223 25.3584C21.2741 25.4993 19.8995 25.5 18 25.5H10C8.1004 25.5 6.7259 25.4993 5.67773 25.3584C4.64391 25.2194 4.00279 24.952 3.52539 24.4746C3.04799 23.9972 2.78059 23.3561 2.6416 22.3223C2.50072 21.2741 2.49998 19.8996 2.5 18V10C2.50002 8.10036 2.50167 6.7259 2.64258 5.67773C2.78157 4.64398 3.04803 4.00278 3.52539 3.52539C4.00279 3.04799 4.64393 2.78059 5.67773 2.6416C6.72589 2.5007 8.10038 2.49999 10 2.5Z" stroke="#F5DC4B"/>
</svg>
